<?xml version="1.0" encoding="UTF-8" standalone="no"?>
<!DOCTYPE svg PUBLIC "-//W3C//DTD SVG 1.1//EN"
 "http://www.w3.org/Graphics/SVG/1.1/DTD/svg11.dtd">
<!-- Generated by graphviz version 2.38.0 (20140413.2041)
 -->
<!-- Title: snakemake_dag Pages: 1 -->
<svg width="706pt" height="260pt"
 viewBox="0.00 0.00 706.00 260.00" xmlns="http://www.w3.org/2000/svg" xmlns:xlink="http://www.w3.org/1999/xlink">
<g id="graph0" class="graph" transform="scale(1 1) rotate(0) translate(4 256)">
<title>snakemake_dag</title>
<polygon fill="white" stroke="none" points="-4,4 -4,-256 702,-256 702,4 -4,4"/>
<!-- 0 -->
<g id="node1" class="node"><title>0</title>
<path fill="none" stroke="#9fd856" stroke-width="2" d="M74,-180C74,-180 12,-180 12,-180 6,-180 0,-174 0,-168 0,-168 0,-156 0,-156 0,-150 6,-144 12,-144 12,-144 74,-144 74,-144 80,-144 86,-150 86,-156 86,-156 86,-168 86,-168 86,-174 80,-180 74,-180"/>
<text text-anchor="middle" x="43" y="-165" font-family="sans" font-size="10.00">buy_lettuce</text>
<text text-anchor="middle" x="43" y="-154" font-family="sans" font-size="10.00">name: bigmag</text>
</g>
<!-- 8 -->
<g id="node9" class="node"><title>8</title>
<path fill="none" stroke="#56d882" stroke-width="2" d="M74.5,-108C74.5,-108 19.5,-108 19.5,-108 13.5,-108 7.5,-102 7.5,-96 7.5,-96 7.5,-84 7.5,-84 7.5,-78 13.5,-72 19.5,-72 19.5,-72 74.5,-72 74.5,-72 80.5,-72 86.5,-78 86.5,-84 86.5,-84 86.5,-96 86.5,-96 86.5,-102 80.5,-108 74.5,-108"/>
<text text-anchor="middle" x="47" y="-87.5" font-family="sans" font-size="10.00">wash_lettuce</text>
</g>
<!-- 0&#45;&gt;8 -->
<g id="edge12" class="edge"><title>0&#45;&gt;8</title>
<path fill="none" stroke="grey" stroke-width="2" d="M43.9888,-143.697C44.4296,-135.983 44.9593,-126.712 45.4507,-118.112"/>
<polygon fill="grey" stroke="grey" stroke-width="2" points="48.9463,-118.288 46.0226,-108.104 41.9577,-117.888 48.9463,-118.288"/>
</g>
<!-- 1 -->
<g id="node2" class="node"><title>1</title>
<path fill="none" stroke="#d85656" stroke-width="2" d="M176.5,-108C176.5,-108 119.5,-108 119.5,-108 113.5,-108 107.5,-102 107.5,-96 107.5,-96 107.5,-84 107.5,-84 107.5,-78 113.5,-72 119.5,-72 119.5,-72 176.5,-72 176.5,-72 182.5,-72 188.5,-78 188.5,-84 188.5,-84 188.5,-96 188.5,-96 188.5,-102 182.5,-108 176.5,-108"/>
<text text-anchor="middle" x="148" y="-87.5" font-family="sans" font-size="10.00">wash_tomato</text>
</g>
<!-- 6 -->
<g id="node7" class="node"><title>6</title>
<path fill="none" stroke="#88d856" stroke-width="2" d="M381,-36C381,-36 303,-36 303,-36 297,-36 291,-30 291,-24 291,-24 291,-12 291,-12 291,-6 297,-0 303,-0 303,-0 381,-0 381,-0 387,-0 393,-6 393,-12 393,-12 393,-24 393,-24 393,-30 387,-36 381,-36"/>
<text text-anchor="middle" x="342" y="-15.5" font-family="sans" font-size="10.00">make_hamburger</text>
</g>
<!-- 1&#45;&gt;6 -->
<g id="edge4" class="edge"><title>1&#45;&gt;6</title>
<path fill="none" stroke="grey" stroke-width="2" d="M188.669,-74.3257C216.54,-64.269 253.907,-50.786 284.775,-39.6483"/>
<polygon fill="grey" stroke="grey" stroke-width="2" points="286.33,-42.8082 294.548,-36.1218 283.954,-36.2237 286.33,-42.8082"/>
</g>
<!-- 2 -->
<g id="node3" class="node"><title>2</title>
<path fill="none" stroke="#d8d356" stroke-width="2" d="M686,-180C686,-180 624,-180 624,-180 618,-180 612,-174 612,-168 612,-168 612,-156 612,-156 612,-150 618,-144 624,-144 624,-144 686,-144 686,-144 692,-144 698,-150 698,-156 698,-156 698,-168 698,-168 698,-174 692,-180 686,-180"/>
<text text-anchor="middle" x="655" y="-165" font-family="sans" font-size="10.00">buy_beef</text>
<text text-anchor="middle" x="655" y="-154" font-family="sans" font-size="10.00">name: bigmag</text>
</g>
<!-- 15 -->
<g id="node16" class="node"><title>15</title>
<path fill="none" stroke="#5673d8" stroke-width="2" d="M666,-108C666,-108 616,-108 616,-108 610,-108 604,-102 604,-96 604,-96 604,-84 604,-84 604,-78 610,-72 616,-72 616,-72 666,-72 666,-72 672,-72 678,-78 678,-84 678,-84 678,-96 678,-96 678,-102 672,-108 666,-108"/>
<text text-anchor="middle" x="641" y="-87.5" font-family="sans" font-size="10.00">make_patty</text>
</g>
<!-- 2&#45;&gt;15 -->
<g id="edge15" class="edge"><title>2&#45;&gt;15</title>
<path fill="none" stroke="grey" stroke-width="2" d="M651.539,-143.697C649.997,-135.983 648.142,-126.712 646.422,-118.112"/>
<polygon fill="grey" stroke="grey" stroke-width="2" points="649.814,-117.224 644.421,-108.104 642.95,-118.597 649.814,-117.224"/>
</g>
<!-- 3 -->
<g id="node4" class="node"><title>3</title>
<path fill="none" stroke="#d87556" stroke-width="2" d="M275,-252C275,-252 213,-252 213,-252 207,-252 201,-246 201,-240 201,-240 201,-228 201,-228 201,-222 207,-216 213,-216 213,-216 275,-216 275,-216 281,-216 287,-222 287,-228 287,-228 287,-240 287,-240 287,-246 281,-252 275,-252"/>
<text text-anchor="middle" x="244" y="-237" font-family="sans" font-size="10.00">buy_onion</text>
<text text-anchor="middle" x="244" y="-226" font-family="sans" font-size="10.00">name: bigmag</text>
</g>
<!-- 13 -->
<g id="node14" class="node"><title>13</title>
<path fill="none" stroke="#d89556" stroke-width="2" d="M268,-180C268,-180 220,-180 220,-180 214,-180 208,-174 208,-168 208,-168 208,-156 208,-156 208,-150 214,-144 220,-144 220,-144 268,-144 268,-144 274,-144 280,-150 280,-156 280,-156 280,-168 280,-168 280,-174 274,-180 268,-180"/>
<text text-anchor="middle" x="244" y="-159.5" font-family="sans" font-size="10.00">wash_onion</text>
</g>
<!-- 3&#45;&gt;13 -->
<g id="edge14" class="edge"><title>3&#45;&gt;13</title>
<path fill="none" stroke="grey" stroke-width="2" d="M244,-215.697C244,-207.983 244,-198.712 244,-190.112"/>
<polygon fill="grey" stroke="grey" stroke-width="2" points="247.5,-190.104 244,-180.104 240.5,-190.104 247.5,-190.104"/>
</g>
<!-- 4 -->
<g id="node5" class="node"><title>4</title>
<path fill="none" stroke="#d8b456" stroke-width="2" d="M268.5,-108C268.5,-108 219.5,-108 219.5,-108 213.5,-108 207.5,-102 207.5,-96 207.5,-96 207.5,-84 207.5,-84 207.5,-78 213.5,-72 219.5,-72 219.5,-72 268.5,-72 268.5,-72 274.5,-72 280.5,-78 280.5,-84 280.5,-84 280.5,-96 280.5,-96 280.5,-102 274.5,-108 268.5,-108"/>
<text text-anchor="middle" x="244" y="-87.5" font-family="sans" font-size="10.00">roast_onion</text>
</g>
<!-- 4&#45;&gt;6 -->
<g id="edge8" class="edge"><title>4&#45;&gt;6</title>
<path fill="none" stroke="grey" stroke-width="2" d="M267.973,-71.8761C280.55,-62.8931 296.132,-51.7625 309.752,-42.0341"/>
<polygon fill="grey" stroke="grey" stroke-width="2" points="311.831,-44.8502 317.934,-36.1898 307.763,-39.1541 311.831,-44.8502"/>
</g>
<!-- 5 -->
<g id="node6" class="node"><title>5</title>
<path fill="none" stroke="#bed856" stroke-width="2" d="M582,-180C582,-180 520,-180 520,-180 514,-180 508,-174 508,-168 508,-168 508,-156 508,-156 508,-150 514,-144 520,-144 520,-144 582,-144 582,-144 588,-144 594,-150 594,-156 594,-156 594,-168 594,-168 594,-174 588,-180 582,-180"/>
<text text-anchor="middle" x="551" y="-165" font-family="sans" font-size="10.00">buy_bun</text>
<text text-anchor="middle" x="551" y="-154" font-family="sans" font-size="10.00">name: bigmag</text>
</g>
<!-- 9 -->
<g id="node10" class="node"><title>9</title>
<path fill="none" stroke="#56d8a2" stroke-width="2" d="M456,-108C456,-108 414,-108 414,-108 408,-108 402,-102 402,-96 402,-96 402,-84 402,-84 402,-78 408,-72 414,-72 414,-72 456,-72 456,-72 462,-72 468,-78 468,-84 468,-84 468,-96 468,-96 468,-102 462,-108 456,-108"/>
<text text-anchor="middle" x="435" y="-87.5" font-family="sans" font-size="10.00">warm_bun</text>
</g>
<!-- 5&#45;&gt;9 -->
<g id="edge13" class="edge"><title>5&#45;&gt;9</title>
<path fill="none" stroke="grey" stroke-width="2" d="M522.623,-143.876C507.456,-134.724 488.595,-123.342 472.261,-113.485"/>
<polygon fill="grey" stroke="grey" stroke-width="2" points="473.856,-110.36 463.486,-108.19 470.239,-116.353 473.856,-110.36"/>
</g>
<!-- 7 -->
<g id="node8" class="node"><title>7</title>
<path fill="none" stroke="#68d856" stroke-width="2" d="M372,-108C372,-108 312,-108 312,-108 306,-108 300,-102 300,-96 300,-96 300,-84 300,-84 300,-78 306,-72 312,-72 312,-72 372,-72 372,-72 378,-72 384,-78 384,-84 384,-84 384,-96 384,-96 384,-102 378,-108 372,-108"/>
<text text-anchor="middle" x="342" y="-87.5" font-family="sans" font-size="10.00">make_vinegar</text>
</g>
<!-- 7&#45;&gt;6 -->
<g id="edge3" class="edge"><title>7&#45;&gt;6</title>
<path fill="none" stroke="grey" stroke-width="2" d="M342,-71.6966C342,-63.9827 342,-54.7125 342,-46.1124"/>
<polygon fill="grey" stroke="grey" stroke-width="2" points="345.5,-46.1043 342,-36.1043 338.5,-46.1044 345.5,-46.1043"/>
</g>
<!-- 8&#45;&gt;6 -->
<g id="edge5" class="edge"><title>8&#45;&gt;6</title>
<path fill="none" stroke="grey" stroke-width="2" d="M86.6861,-75.3112C90.4935,-74.1369 94.3098,-73.0126 98,-72 159.597,-55.097 231.121,-40.0935 280.739,-30.4028"/>
<polygon fill="grey" stroke="grey" stroke-width="2" points="281.52,-33.8165 290.671,-28.4767 280.188,-26.9445 281.52,-33.8165"/>
</g>
<!-- 9&#45;&gt;6 -->
<g id="edge6" class="edge"><title>9&#45;&gt;6</title>
<path fill="none" stroke="grey" stroke-width="2" d="M412.011,-71.6966C400.186,-62.796 385.608,-51.8232 372.821,-42.1989"/>
<polygon fill="grey" stroke="grey" stroke-width="2" points="374.819,-39.3217 364.724,-36.1043 370.609,-44.9145 374.819,-39.3217"/>
</g>
<!-- 10 -->
<g id="node11" class="node"><title>10</title>
<path fill="none" stroke="#56d8c1" stroke-width="2" d="M373.5,-180C373.5,-180 310.5,-180 310.5,-180 304.5,-180 298.5,-174 298.5,-168 298.5,-168 298.5,-156 298.5,-156 298.5,-150 304.5,-144 310.5,-144 310.5,-144 373.5,-144 373.5,-144 379.5,-144 385.5,-150 385.5,-156 385.5,-156 385.5,-168 385.5,-168 385.5,-174 379.5,-180 373.5,-180"/>
<text text-anchor="middle" x="342" y="-165" font-family="sans" font-size="10.00">buy_cucumber</text>
<text text-anchor="middle" x="342" y="-154" font-family="sans" font-size="10.00">name: bigmag</text>
</g>
<!-- 10&#45;&gt;7 -->
<g id="edge10" class="edge"><title>10&#45;&gt;7</title>
<path fill="none" stroke="grey" stroke-width="2" d="M342,-143.697C342,-135.983 342,-126.712 342,-118.112"/>
<polygon fill="grey" stroke="grey" stroke-width="2" points="345.5,-118.104 342,-108.104 338.5,-118.104 345.5,-118.104"/>
</g>
<!-- 11 -->
<g id="node12" class="node"><title>11</title>
<path fill="none" stroke="#56d0d8" stroke-width="2" d="M560,-108C560,-108 498,-108 498,-108 492,-108 486,-102 486,-96 486,-96 486,-84 486,-84 486,-78 492,-72 498,-72 498,-72 560,-72 560,-72 566,-72 572,-78 572,-84 572,-84 572,-96 572,-96 572,-102 566,-108 560,-108"/>
<text text-anchor="middle" x="529" y="-93" font-family="sans" font-size="10.00">buy_cheese</text>
<text text-anchor="middle" x="529" y="-82" font-family="sans" font-size="10.00">name: bigmag</text>
</g>
<!-- 11&#45;&gt;6 -->
<g id="edge7" class="edge"><title>11&#45;&gt;6</title>
<path fill="none" stroke="grey" stroke-width="2" d="M485.628,-72.7646C459.28,-62.9016 425.391,-50.2159 397.149,-39.644"/>
<polygon fill="grey" stroke="grey" stroke-width="2" points="398.009,-36.2288 387.417,-36.0009 395.555,-42.7846 398.009,-36.2288"/>
</g>
<!-- 12 -->
<g id="node13" class="node"><title>12</title>
<path fill="none" stroke="#56b1d8" stroke-width="2" d="M178,-180C178,-180 116,-180 116,-180 110,-180 104,-174 104,-168 104,-168 104,-156 104,-156 104,-150 110,-144 116,-144 116,-144 178,-144 178,-144 184,-144 190,-150 190,-156 190,-156 190,-168 190,-168 190,-174 184,-180 178,-180"/>
<text text-anchor="middle" x="147" y="-165" font-family="sans" font-size="10.00">buy_tomato</text>
<text text-anchor="middle" x="147" y="-154" font-family="sans" font-size="10.00">name: bigmag</text>
</g>
<!-- 12&#45;&gt;1 -->
<g id="edge1" class="edge"><title>12&#45;&gt;1</title>
<path fill="none" stroke="grey" stroke-width="2" d="M147.247,-143.697C147.357,-135.983 147.49,-126.712 147.613,-118.112"/>
<polygon fill="grey" stroke="grey" stroke-width="2" points="151.112,-118.153 147.756,-108.104 144.113,-118.053 151.112,-118.153"/>
</g>
<!-- 13&#45;&gt;4 -->
<g id="edge2" class="edge"><title>13&#45;&gt;4</title>
<path fill="none" stroke="grey" stroke-width="2" d="M244,-143.697C244,-135.983 244,-126.712 244,-118.112"/>
<polygon fill="grey" stroke="grey" stroke-width="2" points="247.5,-118.104 244,-108.104 240.5,-118.104 247.5,-118.104"/>
</g>
<!-- 14 -->
<g id="node15" class="node"><title>14</title>
<path fill="none" stroke="#5692d8" stroke-width="2" d="M478,-180C478,-180 416,-180 416,-180 410,-180 404,-174 404,-168 404,-168 404,-156 404,-156 404,-150 410,-144 416,-144 416,-144 478,-144 478,-144 484,-144 490,-150 490,-156 490,-156 490,-168 490,-168 490,-174 484,-180 478,-180"/>
<text text-anchor="middle" x="447" y="-165" font-family="sans" font-size="10.00">buy_vinegar</text>
<text text-anchor="middle" x="447" y="-154" font-family="sans" font-size="10.00">name: bigmag</text>
</g>
<!-- 14&#45;&gt;7 -->
<g id="edge11" class="edge"><title>14&#45;&gt;7</title>
<path fill="none" stroke="grey" stroke-width="2" d="M421.314,-143.876C407.712,-134.808 390.828,-123.552 376.139,-113.759"/>
<polygon fill="grey" stroke="grey" stroke-width="2" points="378.047,-110.825 367.785,-108.19 374.164,-116.649 378.047,-110.825"/>
</g>
<!-- 15&#45;&gt;6 -->
<g id="edge9" class="edge"><title>15&#45;&gt;6</title>
<path fill="none" stroke="grey" stroke-width="2" d="M603.963,-78.144C596.388,-76.0257 588.453,-73.8806 581,-72 520.79,-56.8078 451.457,-41.693 403.027,-31.5158"/>
<polygon fill="grey" stroke="grey" stroke-width="2" points="403.525,-28.0444 393.02,-29.4209 402.091,-34.8959 403.525,-28.0444"/>
</g>
</g>
</svg>
